<?xml version="1.0" encoding="UTF-8"?>
<svg id="a" data-name="Layer 1" xmlns="http://www.w3.org/2000/svg" width="36.38" height="64" xmlns:xlink="http://www.w3.org/1999/xlink" viewBox="0 0 36.38 64">
  <defs>
    <style>
      .e {
        fill: #f26322;
      }

      .f {
        clip-path: url(#c);
      }

      .g {
        clip-path: url(#d);
      }

      .h {
        fill: none;
      }
    </style>
    <clipPath id="c">
      <rect class="h" y="0" width="36.38" height="64"/>
    </clipPath>
    <clipPath id="d">
      <rect class="h" y="0" width="36.38" height="64"/>
    </clipPath>
  </defs>
  <g id="b" data-name="props">
    <g class="f">
      <g class="g">
        <path class="e" d="M34.84,31.06c-.1-.42-.52-.67-.94-.57-.42,.1-.67,.52-.57,.94,.65,2.65,1.87,7.58,1.38,10.44-.14,.81-.47,1.51-1.08,2.27-.56,.7-1.17,1.32-1.75,1.93-.28,.29-.67,.6-1.08,.93-.55,.44-1.12,.89-1.58,1.41-.46-.52-1.02-.97-1.58-1.41-.41-.33-.8-.64-1.08-.93-.59-.61-1.19-1.24-1.75-1.93-.61-.76-.94-1.46-1.08-2.27-.45-2.63-.07-4.16,.56-6.7,.05-.19,.09-.38,.14-.58h0c.64-2.75,1.7-4.11,2.64-5.3,.88-1.12,1.7-2.17,1.7-3.94,0-.25,0-.4,0-.4v-.03c0-2.31-1.58-4.33-2.97-6.12-1.02-1.31-1.99-2.55-1.99-3.48V.78C23.82,.35,23.47,0,23.04,0h-5.27c-.43,0-.78,.35-.78,.78V15.33c0,.94-.97,2.17-1.99,3.48-1.39,1.78-2.97,3.81-2.97,6.12,0,0,0,.02,0,.03,0,0,0,.15,0,.4v13.32h-.01v22.3c0,.38-.26,1.28-.89,1.28H2.44c-.63,0-.89-.9-.89-1.28v-25.59c0-1.37,1.06-2.73,2.09-4.05,.97-1.25,1.89-2.42,1.89-3.65v-10.9h2.52v10.9c0,1.23,.92,2.41,1.89,3.66,.35,.44,.7,.89,1.01,1.35v-2.58c-.7-.9-1.35-1.79-1.35-2.43v-11.67c0-.43-.35-.78-.78-.78H4.75c-.43,0-.78,.35-.78,.78v11.67c0,.7-.79,1.71-1.56,2.7C1.28,31.84,0,33.48,0,35.39v25.59c0,1.14,.78,2.83,2.44,2.83H11.14c1.67,0,2.45-1.69,2.45-2.83v-11.02s.01-.09,.01-.14V25.37c0-.24,0-.4,0-.45,0-1.77,1.35-3.49,2.64-5.15,1.19-1.53,2.32-2.97,2.32-4.44V1.55h3.71V15.33c0,1.47,1.13,2.91,2.32,4.44,1.3,1.66,2.64,3.38,2.64,5.15,0,.05,0,.21,0,.45,0,1.23-.55,1.92-1.37,2.98-.99,1.26-2.21,2.82-2.93,5.89h0c-.05,.2-.1,.39-.14,.57-.66,2.64-1.09,4.38-.59,7.33,.18,1.07,.63,2.02,1.41,2.98,.6,.74,1.23,1.4,1.84,2.03,.33,.34,.72,.66,1.14,1,.66,.59,1.44,1.39,1.69,1.9,.45,1.44,.48,10.4-.1,11.14-1.71,2.18-4.26,2.08-4.44,2.31-.11,.13-.13,.49,.03,.51h10.91c.17-.02,.14-.37,.04-.51-.18-.23-2.73-.13-4.44-2.31-.58-.74-.56-9.71-.1-11.14,.22-.46,.84-1.16,1.47-1.72,.04-.03,.09-.07,.13-.1,.45-.36,.88-.7,1.23-1.07,.58-.6,1.23-1.28,1.84-2.03,.78-.96,1.22-1.91,1.41-2.98,.55-3.19-.67-8.13-1.4-11.08"/>
      </g>
    </g>
  </g>
</svg>