<?xml version="1.0" standalone="no"?>
<!DOCTYPE svg PUBLIC "-//W3C//DTD SVG 20010904//EN"
 "http://www.w3.org/TR/2001/REC-SVG-20010904/DTD/svg10.dtd">
<svg version="1.0" xmlns="http://www.w3.org/2000/svg"
 width="260.000000pt" height="260.000000pt" viewBox="0 0 260.000000 260.000000"
 preserveAspectRatio="xMidYMid meet">
<metadata>
Created by potrace 1.14, written by Peter Selinger 2001-2017
</metadata>
<g transform="translate(0.000000,260.000000) scale(0.100000,-0.100000)"
fill="#000000" stroke="none">
<path d="M1273 2594 c-10 -4 -13 -77 -13 -314 0 -194 -4 -319 -11 -337 -6 -15
-41 -68 -79 -118 -119 -156 -109 -75 -112 -964 -2 -423 -7 -773 -11 -778 -5
-4 -95 -8 -200 -8 -184 0 -192 1 -202 21 -17 34 -13 1092 4 1124 7 14 38 58
68 98 85 114 84 111 82 370 l-2 227 49 0 49 0 1 -235 c1 -263 -1 -253 78 -354
l46 -59 0 51 c0 40 -6 62 -27 94 l-28 42 -1 253 c-1 168 -5 258 -12 265 -12
12 -192 15 -211 4 -8 -5 -11 -84 -11 -266 l0 -258 -61 -83 c-107 -143 -99 -84
-99 -721 0 -400 3 -564 12 -582 24 -55 46 -60 255 -61 210 -1 239 4 270 51 17
27 18 70 19 799 1 667 3 775 16 805 8 19 46 76 83 125 106 141 102 124 101
458 -1 186 2 287 9 288 49 6 128 3 133 -5 3 -6 6 -141 7 -301 1 -330 -6 -298
100 -440 125 -167 130 -221 33 -352 -58 -79 -82 -128 -108 -226 -31 -118 -35
-145 -34 -238 2 -125 26 -173 152 -297 66 -66 101 -109 105 -128 9 -48 8 -356
-2 -397 -12 -49 -52 -83 -126 -106 -112 -35 -84 -42 162 -39 145 2 227 7 226
13 -1 6 -18 13 -38 17 -48 10 -95 35 -126 68 -28 29 -32 58 -32 255 0 214 -5
199 86 290 105 105 147 157 162 201 16 47 19 154 6 235 -6 35 -13 80 -16 99
-3 19 -14 67 -23 105 -15 59 -22 71 -41 73 -39 6 -43 -10 -26 -84 52 -222 61
-352 30 -418 -17 -35 -120 -148 -178 -194 l-28 -23 -58 50 c-74 65 -125 121
-147 163 -30 57 -30 167 0 292 29 120 55 179 114 258 59 79 73 112 73 176 1
75 -26 135 -110 247 -37 49 -72 97 -77 105 -5 8 -11 161 -14 340 l-5 325 -125
2 c-69 1 -131 -1 -137 -3z"/>
</g>
</svg>
